<svg width="1201" height="721" xmlns="http://www.w3.org/2000/svg" xmlns:xlink="http://www.w3.org/1999/xlink" overflow="hidden"><g transform="translate(-22 7)"><rect x="130.5" y="41.5001" width="302" height="57" stroke="#172C51" stroke-width="1.33333" stroke-miterlimit="8" fill="#9DC3E6"/><text font-family="Arial,Arial_MSFontService,sans-serif" font-weight="700" font-size="24" transform="translate(151.109 78)">Acquisition new image</text><rect x="130.5" y="153.5" width="302" height="56" stroke="#172C51" stroke-width="1.33333" stroke-miterlimit="8" fill="#9DC3E6"/><text font-family="Arial,Arial_MSFontService,sans-serif" font-weight="700" font-size="24" transform="translate(193.775 190)">Pre</text><text font-family="Arial,Arial_MSFontService,sans-serif" font-weight="700" font-size="24" transform="translate(232.442 190)">-</text><text font-family="Arial,Arial_MSFontService,sans-serif" font-weight="700" font-size="24" transform="translate(240.442 190)">processing</text><rect x="130.5" y="499.5" width="302" height="56" stroke="#172C51" stroke-width="1.33333" stroke-miterlimit="8" fill="#9DC3E6"/><text font-family="Arial,Arial_MSFontService,sans-serif" font-weight="700" font-size="24" transform="translate(165.775 536)">Search and analysis</text><path d="M2-3.82024e-06 2.00007 36.9635-1.99993 36.9635-2 3.82024e-06ZM10.0001 34.9634 0.000104987 54.9635-9.99993 34.9635Z" fill="#2E75B6" transform="matrix(-1 0 0 1 281 98)"/><path d="M130.5 297 281.5 252.5 432.5 297 281.5 341.5Z" stroke="#172C51" stroke-width="1.33333" stroke-miterlimit="8" fill="#9DC3E6" fill-rule="evenodd"/><text font-family="Arial,Arial_MSFontService,sans-serif" font-weight="700" font-size="24" transform="translate(209.775 305)">First image?</text><path d="M2-4.886e-06 2.00006 24.9746-1.99994 24.9746-2 4.886e-06ZM10.0001 22.9746 0.000104987 42.9746-9.99994 22.9746Z" fill="#2E75B6" transform="matrix(-1 0 0 1 281 209)"/><rect x="504.5" y="268.5" width="141" height="56" stroke="#172C51" stroke-width="1.33333" stroke-miterlimit="8" fill="#9DC3E6"/><text font-family="Arial,Arial_MSFontService,sans-serif" font-weight="700" font-size="24" transform="translate(514.468 305)">Select ROI</text><rect x="130.5" y="392.5" width="302" height="56" stroke="#172C51" stroke-width="1.33333" stroke-miterlimit="8" fill="#9DC3E6"/><text font-family="Arial,Arial_MSFontService,sans-serif" font-weight="700" font-size="24" transform="translate(199.109 429)">Range expand</text><path d="M0-2 200.442-2 200.442 124.178 196.442 124.178 196.442 0 198.442 2 0 2ZM208.442 122.178 198.442 142.178 188.442 122.178Z" fill="#4472C4" transform="matrix(-1.83697e-16 -1 -1 1.83697e-16 574.178 267.442)"/><text font-family="Arial,Arial_MSFontService,sans-serif" font-weight="700" font-size="24" transform="translate(446.197 284)">yes</text><path d="M283 341 283 373.253 279 373.253 279 341ZM291 371.253 281 391.253 271 371.253Z" fill="#2E75B6"/><text font-family="Arial,Arial_MSFontService,sans-serif" font-weight="700" font-size="24" transform="translate(301.378 370)">no</text><path d="M115.5 659.5 287 606.5 458.5 659.5 287 712.5Z" stroke="#172C51" stroke-width="1.33333" stroke-miterlimit="8" fill="#9DC3E6" fill-rule="evenodd"/><text font-family="Arial,Arial_MSFontService,sans-serif" font-weight="700" font-size="24" transform="translate(218.799 653)">Satisfy the</text><text font-family="Arial,Arial_MSFontService,sans-serif" font-weight="700" font-size="24" transform="translate(203.386 682)">requirements</text><text font-family="Arial,Arial_MSFontService,sans-serif" font-weight="700" font-size="24" transform="translate(355.386 682)">?</text><text font-family="Arial,Arial_MSFontService,sans-serif" font-weight="700" font-size="24" transform="translate(77.2566 637)">yes</text><text font-family="Arial,Arial_MSFontService,sans-serif" font-weight="700" font-size="24" transform="translate(467.807 637)">no</text><path d="M0.0213494-1.99989 53.2542-1.43161 53.2115 2.56816-0.0213494 1.99989ZM51.3397-9.4525 71.2318 0.76042 51.1262 10.5464Z" fill="#2E75B6" transform="matrix(1 0 0 -1 432 296.76)"/><path d="M283 451 283 483.253 279 483.253 279 451ZM291 481.253 281 501.253 271 481.253Z" fill="#2E75B6"/><path d="M288 553 288 585.253 284 585.253 284 553ZM296 583.253 286 603.253 276 583.253Z" fill="#2E75B6"/><path d="M457.917 657.019 513.917 657.019 511.917 659.019 511.917 420 513.917 422 450 422 450 418 515.917 418 515.917 661.019 457.917 661.019ZM452 430 432 420 452 410Z" fill="#4472C4"/><path d="M0 2-45.3333 2-43.3333 0-43.3333 589.739-45.3333 587.739-3.30362 587.739-3.30362 591.739-47.3333 591.739-47.3333-2 0-2ZM-5.30362 579.739 14.6964 589.739-5.30362 599.739Z" fill="#4472C4" transform="matrix(1 -1.22465e-16 -1.22465e-16 -1 115 658.739)"/><rect x="833.5" y="41.5001" width="302" height="57" stroke="#172C51" stroke-width="1.33333" stroke-miterlimit="8" fill="#9DC3E6"/><text font-family="Arial,Arial_MSFontService,sans-serif" font-weight="700" font-size="24" transform="translate(854.125 78)">Acquisition new image</text><rect x="833.5" y="153.5" width="302" height="56" stroke="#172C51" stroke-width="1.33333" stroke-miterlimit="8" fill="#9DC3E6"/><text font-family="Arial,Arial_MSFontService,sans-serif" font-weight="700" font-size="24" transform="translate(896.792 190)">Pre</text><text font-family="Arial,Arial_MSFontService,sans-serif" font-weight="700" font-size="24" transform="translate(935.459 190)">-</text><text font-family="Arial,Arial_MSFontService,sans-serif" font-weight="700" font-size="24" transform="translate(943.459 190)">processing</text><rect x="833.5" y="504.5" width="302" height="57" stroke="#172C51" stroke-width="1.33333" stroke-miterlimit="8" fill="#9DC3E6"/><text font-family="Arial,Arial_MSFontService,sans-serif" font-weight="700" font-size="24" transform="translate(879.458 541)">Match new feature</text><path d="M2-3.82024e-06 2.00007 36.9635-1.99993 36.9635-2 3.82024e-06ZM10.0001 34.9634 0.000104987 54.9635-9.99993 34.9635Z" fill="#2E75B6" transform="matrix(-1 0 0 1 984 98)"/><path d="M836.5 415 987.5 370.5 1138.5 415 987.5 459.5Z" stroke="#172C51" stroke-width="1.33333" stroke-miterlimit="8" fill="#9DC3E6" fill-rule="evenodd"/><text font-family="Arial,Arial_MSFontService,sans-serif" font-weight="700" font-size="24" transform="translate(915.53 423)">First image?</text><rect x="833.5" y="265.5" width="302" height="56" stroke="#172C51" stroke-width="1.33333" stroke-miterlimit="8" fill="#9DC3E6"/><text font-family="Arial,Arial_MSFontService,sans-serif" font-weight="700" font-size="24" transform="translate(884.125 302)">Feature detection</text><path d="M1137.74 411.843 1219.34 411.843 1217.34 413.843 1217.34 69 1219.34 71 1153 71 1153 67 1221.34 67 1221.34 415.843 1137.74 415.843ZM1155 79 1135 69 1155 59Z" fill="#4472C4"/><text font-family="Arial,Arial_MSFontService,sans-serif" font-weight="700" font-size="24" transform="translate(1154.74 401)">yes</text><text font-family="Arial,Arial_MSFontService,sans-serif" font-weight="700" font-size="24" transform="translate(1000.31 484)">no</text><text font-family="Arial,Arial_MSFontService,sans-serif" font-weight="700" font-size="24" transform="translate(780.865 638)">yes</text><text font-family="Arial,Arial_MSFontService,sans-serif" font-weight="700" font-size="24" transform="translate(1161.23 642)">no</text><path d="M986 212 986 244.253 982 244.253 982 212ZM994 242.253 984 262.253 974 242.253Z" fill="#2E75B6"/><path d="M987 560 987 592.253 983 592.253 983 560ZM995 590.253 985 610.253 975 590.253Z" fill="#2E75B6"/><path d="M986 321 986 353.253 982 353.253 982 321ZM994 351.253 984 371.253 974 351.253Z" fill="#2E75B6"/><path d="M986 456 986 488.253 982 488.253 982 456ZM994 486.253 984 506.253 974 486.253Z" fill="#2E75B6"/><path d="M830.5 655 986 610.5 1141.5 655 986 699.5Z" stroke="#172C51" stroke-width="1.33333" stroke-miterlimit="8" fill="#9DC3E6" fill-rule="evenodd"/><text font-family="Arial,Arial_MSFontService,sans-serif" font-weight="700" font-size="24" transform="translate(946.582 649)">L</text><text font-family="Arial,Arial_MSFontService,sans-serif" font-weight="700" font-size="24" transform="translate(961.249 649)">ast of</text><text font-family="Arial,Arial_MSFontService,sans-serif" font-weight="700" font-size="24" transform="translate(931.915 678)">feature</text><text font-family="Arial,Arial_MSFontService,sans-serif" font-weight="700" font-size="24" transform="translate(1011.92 678)">s</text><text font-family="Arial,Arial_MSFontService,sans-serif" font-weight="700" font-size="24" transform="translate(1025.25 678)">?</text><path d="M1141.16 652.107 1216.85 652.107 1214.85 654.107 1214.85 532 1216.85 534 1153 534 1153 530 1218.85 530 1218.85 656.107 1141.16 656.107ZM1155 542 1135 532 1155 522Z" fill="#4472C4"/><path d="M0 2-68.3077 2-66.3077 0-66.3077 585.107-68.3077 583.107-15.4207 583.107-15.4207 587.107-70.3077 587.107-70.3077-2 0-2ZM-17.4207 575.107 2.57932 585.107-17.4207 595.107Z" fill="#4472C4" transform="matrix(1 -1.22465e-16 -1.22465e-16 -1 830 654.107)"/><text font-family="Arial,Arial_MSFontService,sans-serif" font-weight="700" font-size="37" transform="translate(45.2638 42)">(a)</text><text font-family="Arial,Arial_MSFontService,sans-serif" font-weight="700" font-size="37" transform="translate(744.412 41)">(b)</text></g></svg>